<svg id="SvgjsSvg1001" width="256" height="256" xmlns="http://www.w3.org/2000/svg" version="1.1" xmlns:xlink="http://www.w3.org/1999/xlink" xmlns:svgjs="http://svgjs.com/svgjs"><defs id="SvgjsDefs1002"></defs><g id="SvgjsG1008"><svg xmlns="http://www.w3.org/2000/svg" data-name="Camada 1" viewBox="0 0 100 100" width="256" height="256"><path d="M100,50A49.99961,49.99961,0,0,1,29.58,95.64a18.05077,18.05077,0,0,0,2.39-5.5,44.01762,44.01762,0,1,0-22.1-22.1,17.94784,17.94784,0,0,0-5.50995,2.38A49.99992,49.99992,0,1,1,100,50Z"></path><path d="M78.28 50A28.275 28.275 0 1 1 50 21.72a27.82686 27.82686 0 0 1 7.68 1.07 13.79 13.79 0 0 0-3.06994 5.41A22.60123 22.60123 0 0 0 50 27.72 22.275 22.275 0 1 0 72.28 50a22.60123 22.60123 0 0 0-.48-4.61005A13.79 13.79 0 0 0 77.21 42.32 27.82686 27.82686 0 0 1 78.28 50zM14.253 99.99738a14.25 14.25 0 1 1 14.25-14.25A14.26621 14.26621 0 0 1 14.253 99.99738zm0-22.5a8.25 8.25 0 1 0 8.25 8.25A8.25965 8.25965 0 0 0 14.253 77.49738z"></path><path d="M50.003 46.16827a3.82862 3.82862 0 1 0 3.8291 3.82911A3.83266 3.83266 0 0 0 50.003 46.16827zM67.87213 41.95636a9.82813 9.82813 0 1 1 9.82813-9.82813A9.83964 9.83964 0 0 1 67.87213 41.95636zm0-13.65625a3.82813 3.82813 0 1 0 3.82813 3.82812A3.83182 3.83182 0 0 0 67.87213 28.30011z"></path></svg></g></svg>